<?xml version="1.0" encoding="UTF-8" standalone="no"?><!-- Generator: Gravit.io --><svg xmlns="http://www.w3.org/2000/svg" xmlns:xlink="http://www.w3.org/1999/xlink" style="isolation:isolate" viewBox="957 152.339 167 167" width="167pt" height="167pt"><g><path d=" M 1124 235.836 C 1124.015 247.139 1121.727 258.326 1117.275 268.716 L 1116.999 269.353 C 1101.503 304.603 1063.941 324.719 1026.011 318.08 Q 1025.259 317.947 1024.509 317.803 C 1019.344 316.802 1014.287 315.311 1009.405 313.349 Q 1008.215 312.871 1007.043 312.359 C 1006.51 312.127 1005.976 311.887 1005.447 311.64 C 975.92 297.955 957.017 268.379 957 235.836 C 957 189.722 994.385 152.339 1040.5 152.339 C 1086.615 152.339 1124 189.722 1124 235.836 Z " fill="rgb(108,99,255)"/><g opacity="0.2"><path d=" M 1026.011 318.08 Q 1025.259 317.947 1024.509 317.803 C 1024.183 308.34 1023.064 288.915 1019.247 268.572 C 1017.159 257.439 1014.262 246.026 1010.242 235.823 C 1008.865 232.293 1007.293 228.843 1005.531 225.487 C 1001.47 217.817 996.544 211.36 990.57 206.985 L 991.45 205.784 Q 998.902 211.246 1004.844 221.12 Q 1006.627 224.077 1008.268 227.429 Q 1010.029 231.016 1011.626 235.045 Q 1012.645 237.609 1013.595 240.351 Q 1017.73 252.257 1020.626 267.52 Q 1021.267 270.892 1021.846 274.429 C 1024.838 292.702 1025.739 309.597 1026.011 318.08 Z " fill="rgb(0,0,0)"/></g><g opacity="0.2"><path d=" M 1007.043 312.359 C 1006.51 312.127 1005.976 311.887 1005.447 311.64 C 1004.931 306.032 1003.982 299.076 1002.248 292.473 C 1001.489 289.507 1000.513 286.601 999.331 283.777 C 997.352 279.145 994.79 275.208 991.477 272.779 L 992.357 271.581 C 995.825 274.121 998.5 278.135 1000.568 282.831 C 1002.898 288.122 1004.452 294.281 1005.487 300.165 C 1006.255 304.535 1006.739 308.757 1007.043 312.359 Z " fill="rgb(0,0,0)"/></g><g opacity="0.2"><ellipse vector-effect="non-scaling-stroke" cx="982.2628745112006" cy="199.5173958959997" rx="7.433119836719698" ry="7.4328450584358166" fill="rgb(0,0,0)"/></g><g opacity="0.2"><ellipse vector-effect="non-scaling-stroke" cx="984.6566208393601" cy="263.5009934878964" rx="7.433119836719698" ry="7.4328450584358166" fill="rgb(0,0,0)"/></g><g opacity="0.2"><path d=" M 1011.773 212.002 C 1010.196 220.895 1013.676 228.947 1013.676 228.947 C 1013.676 228.947 1019.711 222.581 1021.287 213.689 C 1022.864 204.796 1019.384 196.744 1019.384 196.744 C 1019.384 196.744 1013.349 203.11 1011.773 212.002 Z " fill="rgb(0,0,0)"/></g><g opacity="0.2"><path d=" M 987.069 233.111 C 995.551 236.213 1004.075 234.222 1004.075 234.222 C 1004.075 234.222 998.846 227.203 990.364 224.102 C 981.882 221 973.358 222.991 973.358 222.991 C 973.358 222.991 978.587 230.01 987.069 233.111 Z " fill="rgb(0,0,0)"/></g><g opacity="0.2"><path d=" M 985.631 289.771 C 991.576 291.945 997.559 290.527 997.559 290.527 C 997.559 290.527 993.902 285.584 987.957 283.41 C 982.012 281.236 976.029 282.654 976.029 282.654 C 976.029 282.654 979.686 287.597 985.631 289.771 Z " fill="rgb(0,0,0)"/></g><ellipse vector-effect="non-scaling-stroke" cx="1040.3285368594843" cy="221.7742863863005" rx="32.552668389402925" ry="32.551465023043534" fill="rgb(208,205,225)"/><path d=" M 1027.613 246.696 C 1027.613 246.696 1031.682 266.024 1031.682 268.058 C 1031.682 268.058 1051.01 279.248 1051.01 279.248 L 1068.303 276.196 L 1074.407 257.886 C 1074.407 257.886 1064.234 242.628 1064.234 236.524 L 1027.613 246.696 Z " fill="rgb(208,205,225)"/><path d=" M 1117.275 268.716 L 1116.999 269.353 C 1101.503 304.603 1063.941 324.719 1026.011 318.08 Q 1025.259 317.947 1024.509 317.803 C 1019.344 316.802 1014.287 315.311 1009.405 313.349 Q 1008.215 312.871 1007.043 312.359 C 1006.51 312.127 1005.976 311.887 1005.447 311.64 C 1000.655 309.42 996.085 306.75 991.798 303.666 L 987.939 292.473 L 990.108 290.818 L 994.57 287.411 L 999.331 283.777 L 1000.568 282.831 L 1019.247 268.572 L 1020.625 267.52 L 1030.334 260.109 L 1030.337 260.107 C 1030.337 260.107 1040.836 277.214 1056.096 272.127 C 1056.096 272.127 1071.022 252.456 1071.022 252.456 L 1117.275 268.716 Z " fill="rgb(47,46,65)"/><path d=" M 1012.099 195.549 C 1012.099 195.549 1022.434 173.156 1042.244 178.324 C 1042.244 178.324 1073.25 191.242 1074.111 198.994 C 1074.111 198.994 1073.68 218.372 1073.68 218.372 C 1073.68 218.372 1071.527 202.439 1057.747 205.884 C 1057.747 205.884 1022.434 206.745 1022.434 206.745 L 1018.989 237.75 C 1018.989 237.75 1015.113 232.152 1010.807 235.597 C 1006.501 239.042 998.318 202.439 1012.099 195.549 Z " fill="rgb(47,46,65)"/><path d=" M 1009.405 313.349 Q 1008.215 312.871 1007.043 312.359 C 1006.51 312.127 1005.976 311.887 1005.447 311.64 C 997.522 307.965 990.221 303.072 983.809 297.139 C 986.079 294.046 987.939 292.473 987.939 292.473 L 1003.199 292.473 L 1005.487 300.165 L 1009.405 313.349 Z " fill="rgb(47,46,65)"/><path d=" M 1103.908 267.041 L 1116.999 269.353 C 1113.496 277.333 1108.764 284.716 1102.977 291.233 L 1103.908 267.041 Z " fill="rgb(47,46,65)"/></g></svg>